<svg xmlns="http://www.w3.org/2000/svg" xmlns:xlink="http://www.w3.org/1999/xlink" xml:space="preserve" style="shape-rendering:geometricPrecision;text-rendering:geometricPrecision;image-rendering:optimizeQuality;" viewBox="0 0 100 125" x="0px" y="0px" fill-rule="evenodd" clip-rule="evenodd"><defs><style type="text/css">
   
    .fil0 {fill:green}
   
  </style></defs><g><path class="fil0" d="M53.124 11.5855c21.573,0 39.0617,17.4887 39.0617,39.0617 0,21.573 -17.4887,39.0617 -39.0617,39.0617 -21.573,0 -39.0617,-17.4887 -39.0617,-39.0617 0,-21.573 17.4887,-39.0617 39.0617,-39.0617zm-22.6797 39.1314c-2.05513,-0.400397 -4.04885,0.940165 -4.44925,2.9953 -0.401578,2.05513 0.940165,4.04885 2.9953,4.44925 1.20355,0.237403 2.7827,1.56734 4.44452,3.45003 2.33624,2.64805 4.57917,6.228 6.27761,9.67921l-0.00826778 0.00354333c0.92481,1.88033 3.20199,2.65396 5.08232,1.72915 0.695675,-0.342522 1.23899,-0.870479 1.60277,-1.49411 3.96145,-6.42643 8.50637,-12.6473 13.7422,-18.6167 5.28784,-6.02721 11.308,-11.8442 18.1773,-17.4119 1.62167,-1.31812 1.86734,-3.70279 0.549217,-5.32327 -1.31812,-1.62049 -3.7016,-1.86734 -5.32327,-0.549217 -7.2036,5.83942 -13.5308,11.954 -19.0986,18.3013 -4.11145,4.68547 -7.79652,9.4796 -11.1084,14.3635 -1.31103,-2.05632 -2.7449,-4.0146 -4.22838,-5.69532 -2.6953,-3.05435 -5.67524,-5.29256 -8.65519,-5.88075z"/></g></svg>