<svg xmlns="http://www.w3.org/2000/svg" fill="red" data-name="Calque 2" viewBox="0 0 100 125" x="0px" y="0px"><path d="m14.64,85.36c4.59,4.59,9.94,8.19,15.9,10.71,6.16,2.61,12.71,3.93,19.46,3.93s13.3-1.32,19.46-3.93c5.96-2.52,11.3-6.12,15.89-10.71,4.59-4.59,8.2-9.94,10.72-15.9,2.61-6.16,3.93-12.71,3.93-19.46s-1.32-13.3-3.93-19.46c-2.52-5.96-6.13-11.3-10.72-15.89-4.59-4.6-9.93-8.2-15.89-10.72C63.3,1.32,56.75,0,50,0s-13.3,1.32-19.46,3.93c-5.96,2.52-11.31,6.12-15.9,10.72-4.59,4.59-8.19,9.93-10.71,15.89C1.32,36.7,0,43.25,0,50s1.32,13.3,3.93,19.46c2.52,5.96,6.12,11.31,10.71,15.9ZM50,11.32c21.33,0,38.68,17.35,38.68,38.68s-17.35,38.68-38.68,38.68S11.31,71.33,11.31,50,28.67,11.32,50,11.32Z"/><path d="m30.43,69.57c1.11,1.1,2.56,1.65,4,1.65s2.9-.55,4-1.65l11.57-11.56,11.56,11.56c1.11,1.1,2.56,1.65,4,1.65s2.9-.55,4-1.65c2.21-2.21,2.21-5.8,0-8.01l-11.56-11.56,11.56-11.56c2.21-2.21,2.21-5.8,0-8.01s-5.79-2.2-8,0l-11.56,11.57-11.57-11.57c-2.2-2.2-5.79-2.2-8,0-2.21,2.21-2.21,5.8,0,8.01l11.56,11.56-11.56,11.56c-2.21,2.21-2.21,5.8,0,8.01Z"/></svg>