<svg xmlns="http://www.w3.org/2000/svg" xmlns:xlink="http://www.w3.org/1999/xlink" xmlns:serif="http://www.serif.com/" viewBox="0 0 1667 2083.75" version="1.1" xml:space="preserve" style="" x="0px" y="0px" fill-rule="evenodd" clip-rule="evenodd" stroke-linejoin="round" stroke-miterlimit="2"><g><path d="M709.838,144.802c-216.202,47.085 -379.392,240.606 -379.392,470.385l-0,262.063c-0,33.831 -10.626,66.79 -30.375,94.235c-0,0 -90.158,125.277 -90.158,125.277c-31.329,39.929 -50.18,90.025 -50.18,144.413c0,129.099 105.61,234.704 234.705,234.704l220.674,0c3.726,105.398 90.346,189.7 196.646,189.7c106.301,0 192.92,-84.302 196.646,-189.7l258.621,0c129.099,0 234.704,-105.605 234.704,-234.704c0,-68.272 -29.655,-129.813 -76.589,-172.804l-88.482,-94.46c-27.999,-29.896 -43.591,-69.332 -43.591,-110.307l-0,-248.416c-0,-229.78 -163.191,-423.301 -379.392,-470.389l-0,-41.803c-0,-56.059 -45.872,-101.908 -101.908,-101.908c-56.063,-0 -101.93,45.851 -101.93,101.908l0,41.806Zm246.439,1331.08l-289.035,0c3.691,76.626 66.985,137.617 144.517,137.617c77.533,-0 140.826,-60.991 144.518,-137.617Zm431.552,-371.155c0.481,0.513 0.982,1.007 1.503,1.48c36.877,33.471 60.315,81.55 60.315,134.971c-0,100.451 -82.17,182.621 -182.621,182.621c0,-0 -872.588,-0 -872.588,-0c-100.447,-0 -182.62,-82.17 -182.62,-182.621c-0,-42.452 14.828,-81.52 39.356,-112.625c0.237,-0.299 0.466,-0.604 0.689,-0.913l90.484,-125.73c26.125,-36.305 40.183,-79.904 40.183,-124.657c0,0 0,-262.062 0,-262.062c0,-236.078 193.16,-429.238 429.238,-429.238c236.057,0 429.216,193.161 429.216,429.238c0,-0.001 0,248.416 0,248.416c0,54.2 20.624,106.364 57.659,145.91l89.186,95.21Zm-317.57,-527.486l0,341.458c0,14.373 11.669,26.041 26.042,26.042c14.373,-0 26.042,-11.669 26.042,-26.042l-0,-341.458c-0,-14.373 -11.669,-26.042 -26.042,-26.042c-14.373,-0 -26.042,11.669 -26.042,26.042Zm-208.666,-440.792l-0,-33.45c-0,-27.408 -22.428,-49.825 -49.825,-49.825c-27.413,-0 -49.846,22.415 -49.846,49.825l-0,33.452c16.368,-1.705 33.009,-2.581 49.846,-2.581c16.808,-0 33.423,0.873 49.825,2.579Z"/></g><text x="0" y="1682" fill="#000000" font-size="5px" font-weight="bold" font-family="'Helvetica Neue', Helvetica, Arial-Unicode, Arial, Sans-serif">Created by Damian Hetman</text><text x="0" y="1687" fill="#000000" font-size="5px" font-weight="bold" font-family="'Helvetica Neue', Helvetica, Arial-Unicode, Arial, Sans-serif">from the Noun Project</text></svg>