<svg xmlns:dc="http://purl.org/dc/elements/1.1/" xmlns:cc="http://creativecommons.org/ns#" xmlns:rdf="http://www.w3.org/1999/02/22-rdf-syntax-ns#" xmlns:svg="http://www.w3.org/2000/svg" xmlns="http://www.w3.org/2000/svg" xmlns:sodipodi="http://sodipodi.sourceforge.net/DTD/sodipodi-0.dtd" xmlns:inkscape="http://www.inkscape.org/namespaces/inkscape" version="1.1" x="0px" y="0px" viewBox="0 0 100 125"><g transform="translate(0,-952.36218)"><path style="text-indent:0;text-transform:none;direction:ltr;block-progression:tb;baseline-shift:baseline;color:#000000;enable-background:accumulate;" d="m 30.217223,963.36247 c -0.987355,-0.008 -1.949249,0.15219 -2.812555,0.40626 -2.30215,0.67822 -4.341851,1.978 -5.937616,3.56262 -7.221469,7.22153 -11.333666,14.06612 -10.312701,21.84446 1.020965,7.77833 6.645484,15.42709 16.687826,25.46949 l 9.875192,9.8753 c 10.042348,10.0426 17.659751,15.6671 25.437997,16.6881 7.778246,1.0209 14.653984,-3.1225 21.875427,-10.344 1.584578,-1.5958 2.884359,-3.6356 3.562569,-5.9377 0.67821,-2.3022 0.697762,-5.3338 -1.437528,-7.4691 -3.669099,-3.6692 -10.580799,-8.525 -14.281529,-10.3753 -2.767742,-1.384 -5.680149,-0.2556 -7.500146,1 -1.819996,1.2556 -3.235347,2.8067 -4.09383,3.6251 -1.343929,1.2812 -2.340454,2.3587 -3.06256,2.9689 -0.722106,0.6102 -0.97577,0.6482 -1.125022,0.6562 -0.149251,0.01 -0.686657,-0.04 -1.937537,-0.875 -1.243262,-0.8297 -3.041288,-2.3881 -5.406356,-4.7501 -0.01034,-0.011 -0.02076,-0.021 -0.03125,-0.031 l -7.062638,-7.0628 c -2.386755,-2.3866 -3.915303,-4.18666 -4.750093,-5.43756 -0.83479,-1.251 -0.883015,-1.7883 -0.875017,-1.9376 0.008,-0.1493 0.04602,-0.3717 0.656263,-1.0938 0.610245,-0.72208 1.687664,-1.74992 2.968808,-3.09387 0.818384,-0.85849 2.369543,-2.24261 3.62507,-4.06263 1.255528,-1.82002 2.383902,-4.73246 1.00002,-7.50024 -1.850405,-3.70082 -6.706107,-10.61258 -10.375203,-14.28172 -1.067641,-1.06767 -2.373071,-1.60399 -3.687571,-1.78131 -0.328626,-0.0443 -0.670902,-0.0599 -1.00002,-0.0625 z m 0.0625,5.96894 c 0.231889,0.0151 0.332532,0.0825 0.375008,0.12501 2.704208,2.70425 8.109787,10.43837 9.25018,12.71916 0.111517,0.22304 0.140045,0.38788 -0.562511,1.4063 -0.702556,1.01842 -1.965066,2.22536 -3.031309,3.34386 -1.130858,1.1863 -2.227011,2.17023 -3.218813,3.34386 -0.991802,1.17363 -1.959027,2.72459 -2.06254,4.65644 -0.103513,1.9318 0.650221,3.7586 1.875036,5.59386 1.176356,1.7627 2.913876,3.7093 5.281353,6.094 0.06909,0.077 0.14214,0.1496 0.218755,0.2187 l 0,0.031 7.062638,7.0627 c 0.07921,0.077 0.162716,0.1505 0.250004,0.2187 2.385398,2.3684 4.362048,4.136 6.12512,5.3127 1.835308,1.2247 3.662072,1.9785 5.593859,1.875 1.931787,-0.1036 3.482737,-1.1019 4.656341,-2.0937 1.173604,-0.9919 2.15754,-2.088 3.343815,-3.2189 1.118486,-1.0663 2.325405,-2.2975 3.343815,-3.0001 1.018411,-0.7026 1.183242,-0.7053 1.406278,-0.5937 2.280807,1.1404 10.014792,6.5772 12.718998,9.2815 0.08496,0.085 0.236935,0.4088 -0.09375,1.5313 -0.330686,1.1225 -1.19502,2.5642 -2.031289,3.4063 -6.720099,6.7202 -11.516004,9.2934 -16.844079,8.5941 -5.328075,-0.6993 -12.242691,-5.2426 -21.969179,-14.9693 l -9.906443,-9.8753 c -9.726484,-9.7266 -14.269683,-16.67252 -14.969042,-22.00066 -0.699359,-5.32815 1.905045,-10.09286 8.625168,-16.81305 0.842143,-0.83626 2.283817,-1.73188 3.406317,-2.06257 0.56125,-0.16535 0.924384,-0.2026 1.156272,-0.18751 z" fill="#000000" fill-opacity="1" stroke="none" marker="none" visibility="visible" display="inline" overflow="visible"/></g></svg>