<svg xmlns="http://www.w3.org/2000/svg" xmlns:xlink="http://www.w3.org/1999/xlink" xmlns:serif="http://www.serif.com/" viewBox="0 0 32 40" version="1.1" xml:space="preserve" style="" x="0px" y="0px" fill-rule="evenodd" clip-rule="evenodd" stroke-linejoin="round" stroke-miterlimit="2"><g transform="matrix(1,0,0,1,-111,-148)"><g><path d="M134,168.517L134,169.5C134,170.296 133.684,171.059 133.121,171.621C132.559,172.184 131.796,172.5 131,172.5L116,172.5C115.204,172.5 114.441,172.184 113.879,171.621C113.316,171.059 113,170.296 113,169.5L113,158.5C113,157.704 113.316,156.941 113.879,156.379C114.441,155.816 115.204,155.5 116,155.5L131,155.5C131.796,155.5 132.559,155.816 133.121,156.379C133.684,156.941 134,157.704 134,158.5L134,159.483L136.818,158.276C137.745,157.878 138.81,157.973 139.651,158.529C140.493,159.084 141,160.025 141,161.033L141,166.967C141,167.975 140.493,168.916 139.651,169.471C138.81,170.027 137.745,170.122 136.818,169.724L134,168.517ZM132,169.5L132,158.5C132,158.235 131.895,157.98 131.707,157.793C131.52,157.605 131.265,157.5 131,157.5L116,157.5C115.735,157.5 115.48,157.605 115.293,157.793C115.105,157.98 115,158.235 115,158.5L115,169.5C115,169.765 115.105,170.02 115.293,170.207C115.48,170.395 115.735,170.5 116,170.5L131,170.5C131.265,170.5 131.52,170.395 131.707,170.207C131.895,170.02 132,169.765 132,169.5ZM134,166.341L137.606,167.886C137.915,168.018 138.27,167.987 138.55,167.802C138.831,167.617 139,167.303 139,166.967L139,161.033C139,160.697 138.831,160.383 138.55,160.198C138.27,160.013 137.915,159.982 137.606,160.114C137.606,160.114 134,161.659 134,161.659L134,166.341Z"/></g></g><text x="0" y="47" fill="#000000" font-size="5px" font-weight="bold" font-family="'Helvetica Neue', Helvetica, Arial-Unicode, Arial, Sans-serif">Created by icelloid</text><text x="0" y="52" fill="#000000" font-size="5px" font-weight="bold" font-family="'Helvetica Neue', Helvetica, Arial-Unicode, Arial, Sans-serif">from the Noun Project</text></svg>